<svg width="400" height="150" viewBox="0 0 400 150" fill="none" xmlns="http://www.w3.org/2000/svg">
  <path d="M320.5 30C320.5 30 310.5 40 300.5 40C290.5 40 280.5 30 270.5 30C260.5 30 250.5 40 240.5 40C230.5 40 220.5 30 210.5 30C200.5 30 190.5 40 180.5 40C170.5 40 160.5 30 150.5 30C140.5 30 130.5 40 120.5 40C110.5 40 100.5 30 90.5 30C80.5 30 70.5 40 60.5 40" stroke="white" stroke-width="3" stroke-linecap="round"/>
  <path d="M340.5 60C340.5 60 330.5 70 320.5 70C310.5 70 300.5 60 290.5 60C280.5 60 270.5 70 260.5 70C250.5 70 240.5 60 230.5 60C220.5 60 210.5 70 200.5 70C190.5 70 180.5 60 170.5 60C160.5 60 150.5 70 140.5 70C130.5 70 120.5 60 110.5 60C100.5 60 90.5 70 80.5 70" stroke="white" stroke-width="3" stroke-linecap="round"/>
  <path d="M320.5 90C320.5 90 310.5 100 300.5 100C290.5 100 280.5 90 270.5 90C260.5 90 250.5 100 240.5 100C230.5 100 220.5 90 210.5 90C200.5 90 190.5 100 180.5 100C170.5 100 160.5 90 150.5 90C140.5 90 130.5 100 120.5 100C110.5 100 100.5 90 90.5 90C80.5 90 70.5 100 60.5 100" stroke="white" stroke-width="3" stroke-linecap="round"/>
  <path d="M340.5 120C340.5 120 330.5 130 320.5 130C310.5 130 300.5 120 290.5 120C280.5 120 270.5 130 260.5 130C250.5 130 240.5 120 230.5 120C220.5 120 210.5 130 200.5 130C190.5 130 180.5 120 170.5 120C160.5 120 150.5 130 140.5 130C130.5 130 120.5 120 110.5 120C100.5 120 90.5 130 80.5 130" stroke="white" stroke-width="3" stroke-linecap="round"/>
</svg>

